<svg xmlns="http://www.w3.org/2000/svg" viewBox="0 0 576 512"><path d="M228.5 511.8l-25-7.1c-3.2-.9-5-4.2-4.1-7.4L340.1 4.4c.9-3.2 4.2-5 7.4-4.1l25 7.1c3.2.9 5 4.2 4.1 7.4L235.9 507.6c-.9 3.2-4.3 5.1-7.4 4.2zM145.8 386.9L1.7 259.7c-2.3-2-2.3-5.5 0-7.5L145.8 125c2.1-1.8 5.2-1.6 7.1.4l18.5 20.9c1.9 2.1 1.6 5.3-.5 7.1L49.9 256l121 102.5c2.1 1.8 2.4 5 .5 7.1l-18.5 20.9c-1.8 2.1-5 2.3-7.1.4zM423.1 386.5l-18.5-20.9c-1.9-2.1-1.6-5.3.5-7.1l121-102.5-121-102.5c-2.1-1.8-2.4-5-.5-7.1l18.5-20.9c1.8-2.1 5-2.3 7.1-.4l144.1 127.2c2.3 2 2.3 5.5 0 7.5L430.2 386.9c-2.1 1.9-5.3 1.7-7.1-.4z"/></svg>
