<?xml version="1.0" standalone="no"?>
<!DOCTYPE svg PUBLIC "-//W3C//DTD SVG 20010904//EN"
 "http://www.w3.org/TR/2001/REC-SVG-20010904/DTD/svg10.dtd">
<svg version="1.0" xmlns="http://www.w3.org/2000/svg"
 width="16.000000pt" height="16.000000pt" viewBox="0 0 16.000000 16.000000"
 preserveAspectRatio="xMidYMid meet">
<metadata>
Created by potrace 1.11, written by Peter Selinger 2001-2013
</metadata>
<g transform="translate(0.000000,16.000000) scale(0.002778,-0.002778)"
fill="#000000" stroke="none">
<path d="M3418 5420 c-10 -11 -18 -26 -18 -33 0 -8 -3 -17 -7 -21 -4 -3 -8
-12 -9 -19 -1 -7 -7 -32 -15 -57 -7 -25 -13 -49 -15 -55 -1 -5 -23 -82 -48
-170 -26 -88 -48 -167 -50 -175 -2 -8 -7 -28 -11 -45 -4 -16 -10 -34 -14 -40
-3 -5 -6 -14 -7 -20 -3 -18 -42 -158 -64 -230 -12 -38 -23 -79 -25 -90 -3 -11
-23 -83 -46 -160 -22 -77 -47 -162 -54 -190 -7 -27 -25 -90 -40 -140 -14 -49
-28 -97 -30 -105 -2 -8 -18 -64 -35 -125 -17 -60 -40 -139 -50 -175 -10 -36
-48 -168 -85 -295 -36 -126 -72 -252 -80 -280 -7 -27 -28 -99 -45 -160 -18
-60 -36 -123 -40 -140 -5 -16 -22 -77 -40 -135 -17 -58 -33 -116 -36 -130 -2
-14 -8 -34 -11 -45 -4 -11 -8 -23 -9 -27 -1 -5 -2 -9 -4 -10 -1 -2 -3 -10 -5
-18 -2 -8 -29 -103 -60 -210 -31 -107 -58 -204 -60 -214 -3 -11 -11 -40 -19
-65 -8 -25 -18 -59 -22 -76 -4 -16 -8 -34 -10 -40 -2 -5 -15 -53 -29 -105 -14
-52 -29 -102 -32 -110 -3 -8 -7 -19 -9 -25 -2 -5 -17 -59 -34 -120 -74 -260
-92 -321 -129 -452 -11 -38 -27 -95 -36 -128 -9 -33 -28 -98 -42 -145 -38
-130 -53 -184 -53 -197 0 -23 42 -52 94 -64 28 -6 56 -14 61 -18 6 -3 21 -7
34 -9 14 -2 32 -7 40 -12 9 -4 37 -11 62 -15 44 -6 48 -5 68 24 12 17 20 31
18 31 -3 0 4 28 15 62 11 35 22 72 24 83 2 11 25 90 49 175 25 85 47 162 49
170 2 8 7 29 11 45 4 17 12 36 18 42 5 7 7 13 4 13 -3 0 2 21 10 47 8 27 16
56 18 67 6 28 35 129 42 146 3 8 8 23 9 32 2 10 24 88 50 175 25 87 47 165 49
173 7 32 126 446 132 460 3 8 7 20 8 26 6 27 76 280 82 294 3 8 7 21 9 27 3
16 88 314 119 418 21 72 44 153 51 180 1 6 19 66 39 135 20 69 38 132 40 140
8 29 64 226 105 370 23 80 50 175 60 211 10 37 20 71 23 76 3 5 8 20 11 34 3
13 18 71 35 129 16 58 48 168 70 245 21 77 46 161 54 188 8 26 16 50 16 52 1
3 1 6 2 8 0 1 2 9 4 17 3 15 48 172 85 300 33 114 81 283 96 335 18 65 6 104
-36 113 -8 2 -22 5 -30 7 -8 2 -52 15 -97 28 -46 14 -83 22 -83 20 0 -3 -6 -1
-12 4 -25 17 -63 14 -80 -7z"/>
<path d="M1429 4163 c-46 -39 -158 -137 -193 -168 -6 -5 -51 -46 -101 -90 -49
-44 -93 -84 -97 -90 -4 -5 -8 -7 -8 -4 0 3 -24 -17 -54 -45 -29 -28 -77 -71
-107 -96 -29 -25 -60 -52 -69 -60 -9 -8 -54 -49 -101 -90 -46 -41 -91 -81
-100 -90 -9 -8 -35 -31 -59 -50 -23 -19 -57 -48 -74 -65 -18 -16 -63 -57 -102
-90 -38 -33 -81 -71 -95 -85 -14 -14 -40 -36 -56 -50 -43 -36 -162 -141 -190
-168 -41 -40 -31 -58 77 -153 76 -66 130 -114 164 -144 43 -38 177 -157 205
-181 19 -16 46 -40 61 -54 14 -14 57 -52 96 -85 38 -33 85 -74 104 -91 19 -17
80 -72 136 -120 130 -115 244 -216 258 -229 6 -5 65 -57 131 -115 66 -58 122
-107 125 -110 42 -42 94 -80 111 -80 22 0 50 26 154 144 58 66 84 102 85 119
0 10 -52 61 -120 117 -30 25 -60 49 -66 55 -6 5 -33 28 -59 50 -27 22 -53 45
-59 50 -6 6 -36 30 -66 55 -30 25 -62 52 -70 60 -9 8 -38 33 -65 55 -26 22
-64 54 -84 72 -20 17 -142 120 -271 229 -129 109 -240 203 -246 209 -17 15
-105 89 -118 98 -8 5 -6 10 4 16 9 5 29 22 45 38 17 15 52 46 79 68 45 37 61
50 111 93 11 10 52 44 90 76 39 33 72 63 73 68 2 4 10 8 18 8 8 0 14 3 14 8 0
4 46 46 102 92 56 47 106 90 112 95 6 6 101 86 211 179 305 257 307 259 337
290 20 21 26 35 22 50 -9 29 -191 231 -219 244 -20 9 -30 5 -76 -35z"/>
<path d="M4190 4139 c-30 -34 -60 -67 -65 -73 -74 -82 -93 -109 -90 -128 4
-17 53 -69 100 -105 6 -5 55 -46 110 -93 55 -47 140 -119 190 -160 49 -41 97
-82 106 -90 21 -19 78 -68 249 -211 74 -62 137 -116 140 -119 3 -3 46 -39 95
-80 50 -41 92 -77 95 -80 3 -3 32 -28 65 -55 33 -28 63 -54 67 -59 3 -5 -13
-25 -35 -44 -49 -40 -141 -118 -173 -147 -13 -11 -36 -30 -52 -42 -16 -12 -40
-33 -53 -45 -14 -13 -47 -41 -74 -63 -27 -22 -70 -58 -95 -80 -26 -22 -60 -51
-76 -65 -97 -82 -162 -137 -184 -156 -14 -12 -46 -39 -71 -60 -96 -82 -152
-129 -163 -139 -6 -5 -38 -32 -71 -60 -131 -109 -175 -150 -175 -162 1 -16 27
-52 85 -119 141 -160 151 -166 208 -115 17 16 41 38 53 48 54 47 148 129 158
138 6 6 47 42 90 80 44 39 87 77 97 85 14 13 44 40 204 181 22 20 54 47 70 62
17 14 39 34 51 44 27 23 154 135 168 148 12 11 162 144 215 190 18 17 39 35
45 40 11 10 33 29 176 155 106 93 110 98 110 119 0 11 -15 33 -32 49 -66 61
-96 88 -158 142 -35 30 -68 60 -74 65 -23 21 -172 153 -205 181 -19 16 -46 40
-61 54 -14 14 -57 52 -96 85 -38 33 -85 74 -104 91 -19 17 -82 73 -140 124
-156 137 -252 223 -270 240 -8 8 -31 28 -50 44 -34 28 -157 136 -190 166 -61
57 -94 80 -113 80 -14 0 -41 -21 -77 -61z"/>
</g>
</svg>
